<svg clip-rule="evenodd" fill-rule="evenodd" height="244.87mm" image-rendering="optimizeQuality" shape-rendering="geometricPrecision" text-rendering="geometricPrecision" viewBox="0 0 5636.12 10285.5" width="134.181mm" xmlns="http://www.w3.org/2000/svg"><path d="m2641.51 3542.03c203.39-7.67 437.42-129 403.55-356.14-8.17-54.87-55.72-88.82-120.85-75.72-85.32 17.15-104.06 137.98-446.6 72.91-132.49-25.16-394.37-168.36-417.59-32.1-19.71 76.1 8.74 117.19 42.86 160.24 129.53 162.95 334.56 238.52 538.62 230.82zm1423-1680.94c17.35 38.31 61.54 116.67 108.04 191.16l.09.16c47.89 76.69 98.18 149.22 124.02 169.52l14.01-51.43c.82-1.94 3.94-3.7 4.58-8.23.65-4.55 2.84-5.71 4.9-8.11 148.37 22 118.1 68.04 189.14 66.43-.41 60.83 16.6 29.93 57.91 48.77l-30.52 7.69c36.65 47.94 64.55 112.41 67.4 180.99 2.59 62.24-7.82 96.08-22.33 129.84-3.22 5.33-6.04 11.55-8.36 18.79-4.15 9.18-8.48 18.71-12.82 29.13-38.98 69.68-125.21 117.22-134.2 122.05l-.42.22-.26.13-.08.05-146.98 39.28-52.37-4.55-44.53 65.57c-22.88 25.1-3.2 2.48-19.01 17.57-32.75 31.24-10.28-.29-31.76 39.14-3.4 6.24-19.88 42.49-21.81 46.67-100.78 218.51-190.79 341.33-356.87 513.38-154.3 159.84-510.49 364.33-757.04 404.16l-35.51 7.2c-4.72 67.82-12.41 187.03 3.36 246.5l202.08-1.14c14.61 265.24-209.83 472.72-347.53 495.52-137.13 22.71-365.13 49.27-500.29-13.51-98.37-45.7-96.81-46.02-173.76-107.43-86.2-68.8-187.16-227.12-187.38-379.41l211.57-2.58 3.58-199.97c-6.19-50.23 8.91-34.38-24.33-44.37-224.35-37.01-409.9-153.51-586.25-262.6l-97.37-55.95c-8.68-28.09-38.25-48.05-78.41-81.77-114.01-95.72-141.99-137.66-243.5-262.23-79.91-98.06-194.96-306.15-238.61-443.58l-66.13 16.97c-168.86-26.85-243.57-36.9-315.35-150.74-96.33-152.76-33.5-253.69-19.07-314.55 23.56-7.95 11.92-4.03-4.09 14.75 35.06-80.16 54.54-124.53 67.59-139.81 31.32-36.62 20.3 36.72 181.61-152.47l223.7-101.08c231.24-281.81 781.18-1026.05 809.51-1039.6 23.65 185.94-52.52 439.61-83.77 624.14 175.5-45.45 319.19-185.52 422.46-288.34 91.72-91.32 277.45-383.55 295.82-394.01 40.28 229.42-189.01 569.79-217.6 675.46 220.6-33.86 447.82-329.82 581.43-490.38 49.37-59.32 110.66-172.14 150.28-182.09 50.39 199.34-72.86 501.27-122.76 676.22 124.1-41.44 333.67-275.6 414.6-368.82 66.27-76.32 121.65-147.4 172.87-226.76 22.75-35.24 131.35-217.33 151.2-233.42 22.52 25.24 74.21 245.01 91.37 293.59 33.69 95.45 68.18 188.09 110.45 276.43 60.33 126.1 188.56 409.79 267.86 510.01 10.6 15.34 29.04 46.01 49.66 81.43z" fill="#e5cab4"/><path d="m3352.31 4122.72c10.23 188.01-64.49 555.42 99.39 777.29 50.57 68.45 44.88 32.15 45.28 140.78.5 134.79-3.98 232.31 27.87 342.03-43.51 6.02-13.65 172.45-11.49 256.77 2.65 103.63 8.52 197.8 10.89 293.72 2.57 104.15 4.5 194.14 8.41 293.65 4.49 114.44 20.68 179.32 30.7 285.62-21.62-25.74-21.7-25.28-26.95-77.59l-467.67 43.6c-361.5 30.51-1134.89 35.1-1437.51-55.11l-35.17 50.09c1.91-86.7 16.37-202.12 27.68-289.13 10.62-81.75 2.84-210.04 2.88-297.78.03-95.5 11.65-542.07-12.97-596.14 56.55-163.53-48.56-189.45 62.9-438.43 95.64-213.63 114.75-421.63 82.64-649.55l-22.27-81.58-93.87 2.11c55.76-34.87 116.69-8.04 258.26-8.31 84.45-.16 170.38-3.29 255.53-4.39 3.68-67.85 9.02-175.9-9.8-230.08 33.24 9.99 18.15-5.86 24.33 44.37l-3.58 199.97-211.57 2.58c.22 152.29 101.18 310.61 187.38 379.41 76.95 61.42 75.39 61.73 173.76 107.43 135.16 62.79 363.16 36.22 500.29 13.51 137.7-22.8 362.14-230.29 347.53-495.52l187.14-9.31z" fill="#fae0ec"/><path d="m3563.36 6512.58c-6.72 104.94 51.66 413.06 25.61 784.8-10.32 147.19-12.13 286.8-67.32 399.67-10.93 22.36-10.74 24.16-15.18 45.31-6.5 30.84-10.34 62.03-14.76 91.32-8.51 56.48-10.07 127.41-26.84 175.71 10.01-118.89 44.23-219.94 30.49-335.01l-784.15.28c-50.84 4.15-19.97-4.89-44.94 11.66l-45.9-6.09-8.8-728.01-85.75 637.49c-10.04 72.6-10.58 160.76-21.78 232.46l-1.05-147.17-820.56.38-3.83 85.68-10.56-66.14c-76.83-49-49.8-42.57-76.16-267.88-24.11-206.06-37.91-433.87-24.92-641.48 3.87-61.92 36.95-284.46 29.12-312l35.17-50.09c302.62 90.21 1076.01 85.62 1437.51 55.11l467.67-43.6c5.24 52.32 5.32 51.86 26.95 77.59z" fill="#f9bad5"/><g fill="#e5cab4"><path d="m2504.03 7822.17-113.94 2446.36c-7.13 1.58-11.64.15-13.34 3.97-1.72 3.86-6.8 3.15-9.26 3.78-67.93 17.73-891.71 4.82-926.21 2.55-12.64-105.32 126.2-167.52 200.68-201.49l222.44-82.43c36.72-13.16 47.51-10.6 62.06-24.43h.01c62.07-24.42 82.76-78.62 82.76-78.62-52.47-355.24-119.49-708.29-170.67-1051.19l-159.97-1079.63 3.83-85.68 820.56-.38 1.05 147.17z"/><path d="m3464.86 8009.39c-8.66 92.09-111.02 765.37-141.37 887.2l-.11.42c-1.48 5.94-2.79 10.54-3.91 13.67h.5l-22.13 88.93c11.03 125.18-153.6 828.63-156.11 938.05 136.74 95.2 589.93 146.03 603.91 340.56l-960.24 4.47-119.15-2596.37c24.97-16.55-5.9-7.51 44.94-11.66l784.15-.28c13.74 115.07-20.48 216.12-30.49 335.01z"/><path d="m1613.64 5290.51-177.37 387.72c-164.95 355.97-96.76 280.98-379.9 608.46l-296.29 291.15c-60.52 57.87-41.62 31.78-73.29 125.44-32.67 96.61-144.33 272.95-224.68 362.06-39.47 43.78-51.08 89.06-124.15 81.24-8.06-99.61 26.38-89.88 48.1-166.82-102.31 106.34-128.2 214.15-222.59 199.46-35.51-72.58 64.39-154.99 83.55-214.99-62.33 32.02-142.66 132.04-229.82 125.45-26.41-100.25 141.05-227.1 185.21-279.75-33.8 25.5-134.06 86.89-202.42 74.1 14.31-92.69 178.18-225.55 264.81-269.99l-108.59-11.43.01-.01-.63-.06-9.72-1.02c-140-16.57 20.05-91.14 20.05-91.14v-.01c58.8-6.17 90.12-38.16 166.56-58.14 145.85-38.13 118.71-9.3 281.4-231.66l335.81-439.98c69.16-85.44 145.1-488.31 177.74-611.12 77.55-291.88 136.6-514.29 249.6-792.39 50.82-125.06 117.58-224.22 265.99-254.04l93.87-2.11 22.27 81.58c32.1 227.92 13 435.92-82.64 649.55-111.46 248.98-6.35 274.9-62.9 438.43z"/><path d="m3624.06 4212.51c30.15 66.84 75.06 73.7 153.99 316.55 35.79 110.12 82.42 232.14 114.52 350.37l177.89 704.47c1 2.76 2.16 5.85 3.3 8.44 27.5 62.7 156.64 51.41 301.68 72.65 102.59 15.02 193.19 27.98 296.93 38.43 142.44 14.36 137.84 48.76 260.66-26.23 51.24-31.29 166.44-98.38 251.77-79.59 22.01 82.42-28.48 73.73-67.73 126.28 131.32-7.48 276.06-59.97 385.16 1.62-12.97 35.01-3.91 23.03-31.47 44.54-25.72 20.07-125.31 37.7-148.24 46.16 85.9 43.45 258.06-32.79 313.6 70.45-49.53 80.99-181.05 39.35-261.63 81.32 69.34 6.78 221.39 18.91 222.63 104.42-92.58 42.44-201.19-.13-252.2 6.35l-24.07 7.52c54.34 20.77 113.31 16.07 125.6 82.2-128.7 104.53-632.02-120.6-679.29-123.27-131.66-7.46-331.12 2.84-517.74-7.74-111.39-6.31-348.23-36.14-446.15-103.82-100.96-69.77-207.98-428.4-278.42-550.82-31.84-109.72-27.37-207.25-27.87-342.03-.4-108.63 5.29-72.33-45.28-140.78-163.88-221.87-89.17-589.28-99.39-777.29 66.23-5.31 104.55.51 160.6 23.59 58.26 23.99 62.13 38.1 111.15 66.21z"/></g><path d="m836.77 2791.12c-4.33 86.49 99.62 284.39 105.14 429.66 5.97 156.99-65.07 315.99-139.08 404.63-329.22 394.29-652.09 71.51-670.98-23.07 375.53 3.01 139.59-449.21 87.09-648.16-35.44-134.35-24.29-301.69 31.68-420.64 59.97-127.41 276.79-340.81 399.84-407.74 27.09 20.48 15.05-7.07 5.67 32.49-152.87 76.57-125.48 248.13-29.16 400.88 71.78 113.84 40.92 205.09 209.79 231.94z" fill="#423c3c"/><path d="m4480.21 1301.78c7.49 136.95 86.97 345.44 83.2 510.49-1.61 70.57-7.22 145.19-17.44 213.37-10.33 68.98-32.22 128.87-36.67 194.96-.41 60.83 16.6 29.93 57.91 48.77l-30.52 7.69c36.65 47.94 64.55 112.41 67.4 180.99 2.59 62.24-7.82 96.08-22.33 129.84-3.22 5.33-6.04 11.55-8.36 18.79-4.15 9.18-8.48 18.71-12.82 29.13-38.98 69.68-125.21 117.22-134.2 122.05l-.42.22-.26.13-.08.05-146.98 39.28-52.37-4.55-44.53 65.57c-22.88 25.1-3.2 2.48-19.01 17.57-32.75 31.24-10.28-.29-31.76 39.14-3.4 6.24-19.88 42.49-21.81 46.67-100.78 218.51-190.79 341.33-356.87 513.38-154.3 159.84-510.49 364.33-757.04 404.16l-35.51 7.2-790.07 7.4c.21-12.24.18-6.92-22.64-13.78-224.35-37.01-409.9-153.51-586.25-262.6l-97.37-55.95c-8.68-28.09-38.25-48.05-78.41-81.77-114.01-95.72-141.99-137.66-243.5-262.23-79.91-98.06-194.96-306.15-238.61-443.58l-66.13 16.97c-168.86-26.85-243.57-36.9-315.35-150.74-96.33-152.76-33.5-253.69-19.07-314.55 23.56-7.95 11.92-4.03-4.09 14.75 35.06-80.16 54.54-124.53 67.59-139.81 23.05-26.95 23.18 5.65 85.95-50.69-6.46-172.54-73.5-254.59-26.02-606.64 28.94-214.53 88.8-340.57 162.63-520.24 0 0 42.99-68.22 42.99-68.22 124.15-264.36 482.88-580.52 746.16-711.36 745.24-370.4 1620.1-322.59 2271.9 171.85 222.05 168.44 372.61 340.23 510.77 582.01 47.54 83.19 74.71 179.24 116.03 251.11l3.94 53.17zm-183.54 920.15c-15.62-12.27-43.34-48.25-75.49-94.76 30.67 45.14 58.41 81.35 75.49 94.76zm-3324.11-276.43-1.42 1.73h.01l1.41-1.72z" fill="#423c3c"/><path d="m4447.12 2589.23c22.18-50.9 42.76-83 39.23-167.73-36.88-188.67-31.66-192.68-68.31-240.63l30.51-7.69c198.87 11.17 431.47 255.57 499.12 407.44l28.39 175.8c23.05 293.9-366.77 859.48 68.67 844.93-14.26 93.71-335.1 403.55-650.07 50.09-78.64-88.25-146.03-214.14-158.49-371.07-7.86-98.97 57.82-464.8 162.21-509.27 38.85-16.55 22.77-142.07 48.75-181.87z" fill="#423c3c"/></svg>