<svg clip-rule="evenodd" fill-rule="evenodd" height="244.87mm" image-rendering="optimizeQuality" shape-rendering="geometricPrecision" text-rendering="geometricPrecision" viewBox="0 0 5636.11 10285.49" width="134.181mm" xmlns="http://www.w3.org/2000/svg"><path d="m2994.6 3542.03c-203.39-7.67-437.42-129-403.55-356.14 8.17-54.87 55.72-88.82 120.85-75.72 85.32 17.15 104.06 137.98 446.6 72.91 132.49-25.16 394.37-168.36 417.59-32.1 19.71 76.1-8.74 117.19-42.86 160.24-129.53 162.95-334.56 238.52-538.62 230.82zm-1423-1680.94c-17.35 38.31-61.54 116.67-108.04 191.16l-.09.16c-47.89 76.69-98.18 149.22-124.02 169.52l-14.01-51.43c-.82-1.94-3.94-3.7-4.58-8.23-.65-4.55-2.84-5.71-4.9-8.11-148.37 22-118.1 68.04-189.14 66.43.41 60.83-16.6 29.93-57.91 48.77l30.52 7.69c-36.65 47.94-64.55 112.41-67.4 180.99-2.59 62.24 7.82 96.08 22.33 129.84 3.22 5.33 6.04 11.55 8.36 18.79 4.15 9.18 8.48 18.71 12.82 29.13 38.98 69.68 125.21 117.22 134.2 122.05l.42.22.26.13.08.05 146.98 39.28 52.37-4.55 44.53 65.57c22.88 25.1 3.2 2.48 19.01 17.57 32.75 31.24 10.28-.29 31.76 39.14 3.4 6.24 19.88 42.49 21.81 46.67 100.78 218.51 190.79 341.33 356.87 513.38 154.3 159.84 510.49 364.33 757.04 404.16l35.51 7.2c4.72 67.82 12.41 187.03-3.36 246.5l-202.08-1.14c-14.61 265.24 209.83 472.72 347.53 495.52 137.13 22.71 365.13 49.27 500.29-13.51 98.37-45.7 96.81-46.02 173.76-107.43 86.2-68.8 187.16-227.12 187.38-379.41l-211.56-2.58-3.58-199.97c6.19-50.23-8.91-34.38 24.33-44.37 224.35-37.01 409.9-153.51 586.25-262.6l97.37-55.95c8.68-28.09 38.25-48.05 78.41-81.77 114.01-95.72 141.99-137.66 243.5-262.23 79.91-98.06 194.96-306.14 238.61-443.58l66.13 16.97c168.86-26.85 243.57-36.9 315.35-150.74 96.33-152.76 33.5-253.69 19.07-314.55 0 0-5.94-2-14.79-7.4l18.88 22.15-19.21-22.35c-15.21-9.34-38.75-28.6-55.55-64.64l-58.3-67.83c3.41 2.65 15.58 11.62 21.53 14.64 17.42 8.84 6.47 18.23 23.64 15.05 3.29 13.79 7.57 25.93 12.44 36.64l-173.75-203.79-223.7-101.08c-231.24-281.81-781.17-1026.05-809.51-1039.59-23.65 185.94 52.52 439.61 83.77 624.14-175.5-45.45-319.19-185.52-422.46-288.34-91.72-91.32-277.45-383.55-295.82-394.01-40.28 229.42 189.01 569.79 217.6 675.46-220.6-33.86-447.82-329.82-581.43-490.38-49.37-59.32-110.66-172.14-150.28-182.09-50.39 199.34 72.86 501.27 122.76 676.22-124.1-41.44-333.67-275.6-414.6-368.82-66.27-76.32-121.65-147.4-172.87-226.76-22.75-35.24-131.35-217.33-151.2-233.42-22.52 25.24-74.21 245.01-91.37 293.59-33.69 95.45-68.18 188.09-110.45 276.43-60.33 126.1-188.56 409.79-267.86 510.01-10.6 15.34-29.04 46.01-49.66 81.43z" fill="#e5cab4"/><path d="m2012.05 4212.51c49.02-28.1 52.9-42.21 111.15-66.21 56.05-23.08 94.37-28.89 160.6-23.59-10.23 188 64.49 555.42-99.39 777.29-50.57 68.45-44.88 32.15-45.28 140.78-.5 134.79 3.98 232.31-27.87 342.03 43.51 6.02 13.65 172.45 11.49 256.77-2.65 103.63-8.52 197.8-10.89 293.72-2.57 104.15-4.5 194.14-8.41 293.65-4.49 114.44-20.68 179.32-30.7 285.62 21.62-25.74 21.7-25.28 26.95-77.59l467.67 43.6c361.5 30.51 1134.89 35.1 1437.51-55.11l35.17 50.09c-1.91-86.7-16.37-202.12-27.68-289.12-10.62-81.75-2.84-210.04-2.88-297.78-.03-95.5-11.65-542.07 12.97-596.14-56.55-163.53 48.56-189.45-62.9-438.43-95.64-213.63-114.75-421.63-82.64-649.55l22.27-81.58 93.87 2.11c-55.76-34.87-116.69-8.04-258.26-8.31-84.45-.16-170.38-3.29-255.53-4.39-3.68-67.85-9.02-175.9 9.8-230.08-33.24 9.99-18.15-5.86-24.33 44.37l3.58 199.97 211.56 2.58c-.22 152.29-101.18 310.61-187.38 379.41-76.95 61.42-75.39 61.73-173.76 107.43-135.16 62.79-363.16 36.22-500.29 13.51-137.7-22.8-362.14-230.29-347.53-495.52l202.08 1.14c15.77-59.47 8.08-178.68 3.36-246.5l-35.51-7.2c38.83 44.59 33.86 171.51 19.63 234.13-126.33 1.73-241.91 23.8-360.31-.34-101.91-20.78-252.46 23.98-288.13 99.26z" fill="#fae0ec"/><path d="m2072.76 6512.58c6.72 104.94-51.66 413.06-25.61 784.8 10.32 147.19 12.13 286.8 67.32 399.67 10.93 22.36 10.74 24.16 15.18 45.31 6.5 30.84 10.34 62.03 14.76 91.32 8.51 56.48 10.07 127.41 26.84 175.71-10.01-118.89-44.23-219.94-30.49-335.01l784.15.28c50.84 4.15 19.97-4.89 44.94 11.66l45.9-6.09 8.8-728.01 85.75 637.49c10.04 72.6 10.58 160.76 21.78 232.46l1.05-147.17 820.56.38 3.83 85.68 10.56-66.14c76.83-49 49.8-42.57 76.16-267.88 24.11-206.06 37.91-433.87 24.92-641.48-3.87-61.92-36.95-284.46-29.12-312l-35.17-50.09c-302.62 90.21-1076.01 85.62-1437.51 55.11l-467.67-43.6c-5.24 52.32-5.32 51.86-26.95 77.59z" fill="#f9bad5"/><g fill="#e5cab4"><path d="m3132.08 7822.16 113.94 2446.36c7.13 1.58 11.64.15 13.34 3.97 1.72 3.86 6.8 3.15 9.26 3.78 67.93 17.73 891.71 4.82 926.21 2.55 12.64-105.32-126.2-167.52-200.68-201.49l-222.44-82.43c-36.72-13.16-47.51-10.6-62.06-24.43h-.01c-62.07-24.42-82.76-78.62-82.76-78.62 52.47-355.24 119.49-708.29 170.67-1051.19l159.97-1079.62-3.83-85.68-820.56-.38-1.05 147.17z"/><path d="m2171.25 8009.39c8.66 92.09 111.02 765.37 141.37 887.2l.11.42c1.48 5.94 2.79 10.54 3.91 13.67h-.5l22.13 88.93c-11.03 125.18 153.6 828.63 156.11 938.05-136.74 95.2-589.93 146.03-603.91 340.56l960.24 4.47 119.15-2596.37c-24.97-16.55 5.9-7.51-44.94-11.66l-784.15-.28c-13.74 115.07 20.48 216.12 30.49 335.01z"/><path d="m4022.47 5290.51 177.37 387.72c164.95 355.97 96.76 280.98 379.9 608.46l296.29 291.15c60.52 57.87 41.62 31.78 73.29 125.44 32.67 96.61 144.33 272.95 224.68 362.06 39.47 43.78 51.08 89.06 124.15 81.24 8.06-99.61-26.38-89.88-48.1-166.82 102.31 106.34 128.2 214.15 222.59 199.46 35.51-72.58-64.39-154.99-83.55-214.99 62.33 32.02 142.66 132.04 229.82 125.45 26.41-100.25-141.05-227.1-185.21-279.75 33.8 25.5 134.06 86.89 202.42 74.1-14.31-92.69-178.18-225.55-264.81-269.99l108.59-11.43-.01-.01.63-.06 9.72-1.02c140-16.57-20.05-91.14-20.05-91.14v-.01c-58.8-6.17-90.12-38.16-166.56-58.14-145.85-38.13-118.71-9.3-281.4-231.66l-335.81-439.98c-69.16-85.44-145.1-488.31-177.74-611.12-77.55-291.88-136.6-514.29-249.6-792.39-50.82-125.06-117.58-224.22-265.99-254.03l-93.87-2.11-22.27 81.58c-32.1 227.92-13 435.92 82.64 649.55 111.46 248.98 6.35 274.9 62.9 438.43z"/><path d="m2012.05 4212.51c-30.15 66.84-75.06 73.7-153.99 316.55-35.79 110.12-82.42 232.14-114.52 350.37l-177.89 704.47c-1 2.76-2.16 5.85-3.3 8.44-27.5 62.7-156.64 51.41-301.68 72.65-102.59 15.02-193.19 27.98-296.93 38.43-142.44 14.36-137.84 48.76-260.66-26.23-51.24-31.29-166.44-98.38-251.77-79.59-22.01 82.42 28.48 73.73 67.73 126.28-131.32-7.48-276.06-59.97-385.16 1.62 12.97 35.01 3.91 23.03 31.47 44.54 25.72 20.07 125.31 37.7 148.24 46.16-85.9 43.45-258.06-32.79-313.6 70.45 49.53 80.99 181.05 39.35 261.63 81.32-69.34 6.78-221.39 18.91-222.63 104.42 92.58 42.44 201.19-.13 252.2 6.35l24.07 7.52c-54.34 20.77-113.31 16.07-125.6 82.2 128.7 104.53 632.02-120.6 679.29-123.27 131.66-7.46 331.12 2.84 517.74-7.74 111.39-6.31 348.23-36.14 446.15-103.82 100.96-69.77 207.98-428.4 278.42-550.82 31.84-109.72 27.37-207.25 27.87-342.03.4-108.63-5.29-72.33 45.28-140.78 163.88-221.87 89.17-589.28 99.39-777.29-66.23-5.31-104.55.51-160.6 23.59-58.26 23.99-62.13 38.1-111.15 66.21z"/></g><path d="m4799.35 2791.12c4.33 86.49-99.62 284.39-105.14 429.66-5.97 156.99 65.07 315.99 139.08 404.63 329.22 394.29 652.09 71.51 670.98-23.07-375.53 3.01-139.59-449.21-87.09-648.16 35.44-134.35 24.29-301.69-31.68-420.63-59.97-127.41-123-173.27-246.05-240.21-27.09 20.48-15.05-7.07-5.67 32.5 14.43 60.85 77.26 161.79-19.07 314.55-71.78 113.84-146.48 123.89-315.35 150.74z" fill="#423c3c"/><path d="m3499.02 3268.18c24.08-13.18 10.23-14.55 21.82-24.37 26.08-22.09 69.35-10.12 55.26-92.84-23.22-136.26-285.1 6.94-417.59 32.1-342.55 65.07-361.28-55.75-446.6-72.91-65.13-13.09-112.68 20.86-120.85 75.72-33.87 227.14 200.17 348.47 403.55 356.14 359.21 13.55 477-185.73 532.77-223.47-23.64-65.32-16.73-10.74-28.35-50.38z" fill="#5b5a5a"/><path d="m1155.91 1301.78c-7.49 136.95-86.97 345.44-83.2 510.49 1.61 70.57 7.22 145.19 17.44 213.37 10.33 68.98 32.22 128.87 36.67 194.96 71.04 1.61 40.76-44.44 189.14-66.43 2.06 2.39 4.25 3.55 4.9 8.11.64 4.53 3.76 6.29 4.58 8.23l14.01 51.43c56.93-44.72 274.54-404.14 281.81-442.27 79.31-100.21 207.54-383.9 267.86-510.01 42.26-88.34 76.76-180.99 110.45-276.43 17.15-48.59 68.84-268.35 91.37-293.59 19.85 16.09 128.46 198.18 151.2 233.42 51.22 79.36 106.6 150.44 172.87 226.76 80.93 93.22 290.49 327.38 414.6 368.82-49.9-174.95-173.16-476.89-122.76-676.22 39.62 9.94 100.91 122.76 150.28 182.09 133.61 160.56 360.83 456.52 581.43 490.38-28.59-105.66-257.88-446.03-217.6-675.46 18.38 10.46 204.11 302.7 295.82 394.01 103.27 102.82 246.96 242.89 422.46 288.34-31.26-184.53-107.42-438.2-83.77-624.14 31.6 15.11 712.46 939.71 875.69 1117.03 90.61 98.43 51.83 108.73 252.76 140.99 2.79-183.49 75.33-259.72 26.43-622.2-28.94-214.53-88.8-340.57-162.63-520.24 0 0-42.99-68.22-42.99-68.22-124.15-264.36-482.88-580.52-746.16-711.36-745.24-370.4-1620.1-322.59-2271.9 171.85-222.05 168.44-372.61 340.23-510.77 582.01-47.54 83.19-74.71 179.24-116.03 251.11l-3.94 53.17z" fill="#423c3c"/><path d="m1071.25 2625.77c-22.18-50.9-42.75-83-39.23-167.72 2.85-68.58 30.75-133.05 67.4-180.99l-30.52-7.69c-198.86 11.18-312.81 159.39-380.46 311.27l-28.39 175.8c-23.05 293.9 366.77 859.48-68.67 844.93 14.26 93.71 335.1 403.55 650.07 50.09 78.64-88.25 146.03-214.14 158.49-371.07 15.08-190.01-87.43-313.97-88.7-442.28-54.86-45.57 18.88-27.63-73.51-66.99-51.59-21.98-40.27-59.7-103.1-65.68-24.96-25.32-45.64-52.47-63.39-79.65z" fill="#423c3c"/><path d="m3834.8 2070.31s266.72 152.67 84.23 384.29c0 0-175.48 210.57-440.44 57.9 0 0-173.49-126.31-132.19-268.53 58.33-200.91 319.96-259.61 488.41-173.67z" fill="#fff"/><path d="m2576.81 2070.31s266.73 152.67 84.23 384.29c0 0-175.48 210.57-440.44 57.9 0 0-173.48-126.31-132.19-268.53 58.33-200.91 319.96-259.61 488.4-173.67z" fill="#fff"/><path d="m2354.93 2085.32c-104.48 26.19-188.9 133.59-150.88 273.65 32.46 119.58 158.26 177.62 271.58 142.84 59.83-18.36 92.01-37.64 122.6-86.91 29.32-47.24 41.94-122.77 22.81-184.84-11.71-38.01-34.24-70.75-61.18-93.85-14.98-12.84-16.94-14.28-31.41-24.16-56.06-38.28-107.07-43.39-173.52-26.73z"/><path d="m2519.38 2212.43c-27.41 6.87-49.55 35.04-39.58 71.78 8.51 31.37 41.51 46.59 71.23 37.47 15.69-4.82 24.13-9.87 32.16-22.8 7.69-12.39 11-32.2 5.98-48.48-3.07-9.97-8.98-18.56-16.05-24.62-3.93-3.37-4.45-3.75-8.24-6.34-14.7-10.04-28.08-11.38-45.51-7.01z" fill="#fff"/><path d="m3601.48 2085.32c-104.48 26.19-188.9 133.59-150.88 273.65 32.46 119.58 158.26 177.62 271.58 142.84 59.83-18.36 92.01-37.64 122.6-86.91 29.32-47.24 41.94-122.77 22.81-184.84-11.71-38.01-34.24-70.75-61.18-93.85-14.98-12.84-16.94-14.28-31.41-24.16-56.06-38.28-107.07-43.39-173.52-26.73z"/><path d="m3765.93 2212.43c-27.41 6.87-49.55 35.04-39.58 71.78 8.51 31.37 41.51 46.59 71.23 37.47 15.69-4.82 24.13-9.87 32.15-22.8 7.69-12.39 11-32.2 5.99-48.48-3.07-9.97-8.98-18.56-16.05-24.62-3.93-3.37-4.44-3.75-8.24-6.34-14.71-10.04-28.08-11.38-45.51-7.01z" fill="#fff"/><circle cx="4115.77" cy="2614.18" fill="#ecb6ac" r="199.97"/><circle cx="2009.73" cy="2674.93" fill="#ecb6ac" r="199.97"/><path d="m3386.69 1900.42c-20.15 17.83-52.05 17.09-71.21-1.65-19.17-18.74-18.38-48.41 1.77-66.24.92-.82 318.36-288.47 696.97 71.02 19.49 18.44 19.23 48.1-.6 66.24-19.83 18.13-51.72 17.88-71.21-.55-308.57-292.98-555.01-69.44-555.72-68.81z" fill-rule="nonzero"/><path d="m2657.25 1900.42c20.15 17.83 52.04 17.09 71.21-1.65s18.38-48.41-1.78-66.24c-.92-.82-318.36-288.47-696.97 71.02-19.5 18.44-19.23 48.1.6 66.24 19.82 18.13 51.72 17.88 71.21-.55 308.56-292.98 555.01-69.44 555.72-68.81z" fill-rule="nonzero"/><path d="m2994.6 3542.03c-203.39-7.67-437.42-129-403.55-356.14 8.17-54.87 55.72-88.82 120.85-75.72 85.32 17.15 104.06 137.98 446.6 72.91 132.49-25.16 394.37-168.36 417.59-32.1 19.71 76.1-8.74 117.19-42.86 160.24-129.53 162.95-334.56 238.52-538.62 230.82z"/><path d="m2743.87 3122.13c-21.48 5.14-59.7 27.19 1.35 75.11 61.04 47.92 263.27 171.53 609.28 9.29 0 0 79.8-48.06 2.74-85.26-91.28 17.62-123.5 47.5-198.74 61.79-296.16 56.26-350.27-26.42-414.63-60.93z" fill="#fff"/></svg>