<svg clip-rule="evenodd" fill-rule="evenodd" height="926.929" image-rendering="optimizeQuality" shape-rendering="geometricPrecision" text-rendering="geometricPrecision" viewBox="0 0 2355.09 4304.53" width="507.141" xmlns="http://www.w3.org/2000/svg"><path d="m1698.39 784.33c7.25 16.01 25.71 48.75 45.14 79.88l.04.07c16.62 26.61 33.92 52.02 45.5 64.73l-80.27 110.46 43.22 154.82-4.65 6.85c-9.56 10.49-1.34 1.04-7.94 7.34-13.68 13.05-4.3-.12-13.27 16.36-1.42 2.61-8.31 17.75-9.11 19.5-42.11 91.31-79.72 142.63-149.12 214.52-64.47 66.79-213.31 152.24-316.33 168.88l-14.84 3.01c-1.97 28.34-5.19 78.15 1.4 103l84.44-.48c6.1 110.83-87.68 197.53-145.22 207.06-57.3 9.49-152.57 20.59-209.05-5.65-41.1-19.1-40.45-19.23-72.61-44.89-36.02-28.75-78.2-94.9-78.3-158.54l88.4-1.08 1.5-83.56c-2.59-20.99 3.72-14.37-10.17-18.54-93.75-15.46-171.28-64.14-244.97-109.73l-40.69-23.38c-3.63-11.74-15.98-20.08-32.76-34.17-47.64-40-59.33-57.52-101.75-109.58-33.39-40.98-81.46-127.92-99.7-185.35l-27.63 7.09c-125.27-19.92-137.86-237.34-99.76-281.35s62.44-29.04 62.44-29.04l93.47-42.24c96.62-117.76 326.42-428.74 338.26-434.4 9.88 77.7-21.94 183.69-35 260.8 73.33-18.99 133.37-77.52 176.53-120.48 38.33-38.16 115.93-160.27 123.61-164.64 16.83 95.87-78.98 238.09-90.93 282.24 92.18-14.15 187.12-137.82 242.95-204.91 20.63-24.79 46.24-71.93 62.8-76.09 21.06 83.29-30.45 209.46-51.3 282.56 51.86-17.32 139.43-115.16 173.24-154.12 27.69-31.89 50.83-61.59 72.23-94.75 9.5-14.73 54.89-90.81 63.18-97.54 9.41 10.55 31.01 102.38 38.18 122.68 14.08 39.88 28.49 78.59 46.15 115.51 25.21 52.69 78.79 171.24 111.93 213.11 4.43 6.41 12.14 19.23 20.75 34.03zm104.95 125.04c.39-1.25 1.15-1.73 1.87-2.57z" fill="#e5cab4"/><path d="m1514.34 1766.89c-20.48-11.74-22.1-17.64-46.45-27.66-23.42-9.64-39.43-12.07-67.11-9.86 4.27 78.56-26.95 232.08 41.53 324.79 21.13 28.6 18.75 13.44 18.92 58.83.21 56.32-1.66 97.07 11.64 142.92-18.18 2.52-5.7 72.06-4.8 107.29 1.11 43.3 3.56 82.65 4.55 122.73 1.07 43.52 1.88 81.12 3.51 122.7 1.88 47.82 8.64 74.93 12.83 119.35-9.04-10.75-9.07-10.56-11.26-32.42l-195.42 18.22c-151.05 12.75-474.22 14.67-600.67-23.03l-14.69 20.93c.8-36.23 6.84-84.46 11.56-120.81 4.44-34.16 1.19-87.76 1.2-124.43.01-39.91 4.87-226.51-5.42-249.1 23.63-68.33-20.29-79.16 26.28-183.2 39.96-89.27 47.95-176.18 34.53-271.42l-9.31-34.09-39.23.88c23.3-14.57 48.76-3.36 107.92-3.47 35.29-.07 71.19-1.37 106.78-1.83 1.54-28.35 3.77-73.5-4.1-96.14 13.89 4.17 7.58-2.45 10.17 18.54l-1.5 83.56-88.4 1.08c.09 63.64 42.28 129.79 78.3 158.54 32.15 25.66 31.5 25.79 72.61 44.89 56.48 26.24 151.75 15.14 209.05 5.65 57.54-9.53 151.32-96.23 145.22-207.06l-84.44.48c-6.59-24.85-3.38-74.66-1.4-103l14.84-3.01c-16.23 18.63-14.15 71.67-8.2 97.83 52.79.72 101.08 9.94 150.56-.14 42.59-8.68 105.49 10.02 120.4 41.47z" fill="#fff"/><path d="m1488.97 2727.99c-2.81 43.85 21.59 172.6 10.7 327.93-4.31 61.51-5.07 119.84-28.13 167.01-4.57 9.34-4.49 10.1-6.34 18.93-2.72 12.88-4.32 25.92-6.17 38.16-3.55 23.6-4.21 53.24-11.22 73.42 4.18-49.68 18.48-91.9 12.74-139.99l-327.66.12c-21.24 1.74-8.35-2.04-18.78 4.87l-19.18-2.54-3.68-304.2-35.83 266.38c-4.2 30.33-4.42 67.18-9.1 97.13l-.44-61.5-342.88.16-1.6 35.8-4.41-27.63c-32.11-20.48-20.81-17.79-31.82-111.93-10.07-86.1-15.84-181.29-10.41-268.05 1.62-25.87 15.44-118.86 12.17-130.37l14.69-20.93c126.45 37.7 449.62 35.78 600.67 23.03l195.42-18.22c2.19 21.86 2.22 21.67 11.26 32.42z" fill="#6180ff"/><path d="m1046.33 3275.21-47.61 1022.23c-2.98.66-4.86.06-5.57 1.66-.72 1.61-2.84 1.31-3.87 1.58-28.39 7.41-372.61 2.01-387.02 1.06-5.28-44.01 52.74-70 83.86-84.19l92.95-34.44c15.35-5.5 19.85-4.43 25.93-10.21 25.94-10.2 34.58-32.85 34.58-32.85-21.93-148.44-49.93-295.97-71.32-439.25l-66.84-451.13 1.6-35.8 342.88-.16.44 61.5zm401.48 78.23c-3.62 38.48-46.39 319.82-59.07 370.72l-.04.17c-.62 2.48-1.17 4.4-1.63 5.71h.21l-9.25 37.16c4.61 52.31-64.18 346.25-65.23 391.97 57.14 39.78 246.51 61.02 252.35 142.31l-401.24 1.87-49.79-1084.91c10.43-6.92-2.46-3.14 18.78-4.87l327.66-.12c5.74 48.08-8.56 90.31-12.74 139.99zm-773.54-1136.1-74.12 162.01c-68.93 148.74-40.43 117.41-158.75 254.25l-123.81 121.66c-25.29 24.18-17.39 13.28-30.62 52.42-13.65 40.37-60.31 114.06-93.89 151.29-16.49 18.29-21.34 37.22-51.88 33.95-3.37-41.62 11.02-37.56 20.1-69.71-42.75 44.44-53.57 89.48-93.01 83.35-14.84-30.33 26.91-64.77 34.91-89.84-26.04 13.38-59.61 55.17-96.03 52.42-11.03-41.89 58.94-94.9 77.39-116.9-14.12 10.66-56.02 36.31-84.58 30.96 5.98-38.73 74.45-94.25 110.65-112.82l-45.38-4.78-.26-.03-4.06-.42c-58.5-6.93 8.38-38.09 8.38-38.09 24.57-2.58 37.66-15.95 69.6-24.29 60.95-15.93 49.6-3.89 117.59-96.8l140.32-183.85c28.9-35.7 60.63-204.04 74.27-255.36 32.41-121.96 57.08-214.9 104.3-331.11 21.24-52.26 49.13-93.69 111.14-106.15l39.23-.88 9.31 34.09c13.41 95.24 5.43 182.15-34.53 271.42-46.57 104.04-2.65 114.87-26.28 183.2zm840.07-450.45c12.6 27.93 31.36 30.8 64.35 132.27 14.95 46.01 34.44 97 47.85 146.4l74.33 294.37c.42 1.15.9 2.44 1.38 3.53 11.49 26.2 65.45 21.48 126.06 30.36 42.87 6.27 80.73 11.69 124.07 16.06 59.52 6 57.6 20.38 108.92-10.96 21.41-13.08 69.55-41.11 105.2-33.26 9.2 34.44-11.9 30.81-28.3 52.77 54.87-3.13 115.35-25.06 160.94.68-5.42 14.63-1.63 9.62-13.15 18.61-10.75 8.39-52.36 15.75-61.94 19.29 35.89 18.16 107.83-13.7 131.04 29.44-20.7 33.84-75.65 16.44-109.32 33.98 28.97 2.83 92.51 7.9 93.03 43.63-38.68 17.74-84.07-.05-105.39 2.65l-10.06 3.14c22.71 8.68 47.35 6.72 52.48 34.35-53.78 43.68-264.1-50.39-283.84-51.51-55.02-3.12-138.36 1.19-216.34-3.23-46.55-2.64-145.51-15.1-186.43-43.38-42.19-29.15-86.91-179.01-116.34-230.16-13.31-45.85-11.43-86.6-11.64-142.92-.17-45.39 2.21-30.22-18.92-58.83-68.48-92.71-37.26-246.23-41.53-324.79 27.67-2.22 43.69.21 67.11 9.86 24.34 10.03 25.96 15.92 46.45 27.66zm219.72-601.03 27.63 7.09c125.27-19.92 137.86-237.34 99.76-281.35s-62.44-29.04-62.44-29.04-88.17 204.48-64.95 303.3z" fill="#e5cab4"/><path d="m312.33 862.56s50.43 265.07 64.95 303.3c.37.98.78 2.26 1.21 3.72 19.08 57.4 65.81 141.53 98.49 181.64 42.42 52.05 54.11 69.58 101.75 109.58 16.78 14.09 29.14 22.43 32.76 34.17l40.69 23.38c73.69 45.59 151.22 94.27 244.97 109.73 160.48 2.64 273.32 2.02 352.07.14l2.36-.48c103.02-16.64 251.86-102.09 316.33-168.88 69.4-71.89 107.01-123.21 149.12-214.52.81-1.75 7.69-16.9 9.11-19.5 8.98-16.48-.41-3.3 13.27-16.36 6.61-6.3-1.62 3.15 7.94-7.34l9.3-13.7 38.72-252.32c39.82-254.34 115.37-975.16-451.63-856.14-8.81-3.59-17.57-7.05-26.28-10.37-8.24-3.14-16.43-6.16-24.57-9.06-305.43-108.74-547.46-51.2-709.27 34.42-219.68 116.23-299.35 332.88-271.31 768.59z" fill="#423c3c"/></svg>