<svg clip-rule="evenodd" fill-rule="evenodd" height="926.929" image-rendering="optimizeQuality" shape-rendering="geometricPrecision" text-rendering="geometricPrecision" viewBox="0 0 2355.09 4304.53" width="507.141" xmlns="http://www.w3.org/2000/svg"><path d="m1251.31 1486.72c-84.99-3.21-182.78-53.9-168.63-148.82 3.42-22.93 23.28-37.11 50.5-31.64 35.65 7.17 43.48 57.66 186.62 30.46 55.36-10.52 164.79-70.35 174.49-13.41 8.24 31.8-3.65 48.97-17.91 66.96-54.12 68.09-139.8 99.67-225.07 96.45zm-594.61-702.39c-7.25 16.01-25.71 48.75-45.14 79.88l-.04.07c-20.01 32.05-41.02 62.35-51.82 70.84l-5.85-21.49c-.34-.81-1.65-1.55-1.91-3.44-.27-1.9-1.19-2.39-2.05-3.39-62 9.19-49.35 28.43-79.03 27.76.17 25.42-6.93 12.51-24.2 20.38l12.75 3.21c-15.32 20.03-26.97 46.97-28.16 75.63-1.08 26.01 3.27 40.15 9.33 54.25 1.35 2.23 2.53 4.82 3.49 7.85 1.74 3.84 3.54 7.82 5.35 12.17 16.29 29.12 52.32 48.98 56.08 51l.18.09.11.06.04.02 61.42 16.41 21.89-1.9 18.61 27.4c9.56 10.49 1.34 1.04 7.94 7.34 13.68 13.05 4.3-.12 13.27 16.36 1.42 2.61 8.31 17.75 9.11 19.5 42.11 91.31 79.72 142.63 149.12 214.52 64.47 66.79 213.31 152.24 316.33 168.88l14.84 3.01c1.97 28.34 5.19 78.15-1.4 103l-84.44-.48c-6.1 110.83 87.68 197.53 145.22 207.06 57.3 9.49 152.57 20.59 209.05-5.65 41.1-19.1 40.45-19.23 72.61-44.89 36.02-28.75 78.2-94.9 78.3-158.54l-88.4-1.08-1.5-83.56c2.59-20.99-3.72-14.37 10.17-18.54 93.75-15.46 171.28-64.14 244.97-109.73l40.69-23.38c3.63-11.74 15.98-20.08 32.76-34.17 47.64-40 59.33-57.52 101.75-109.58 33.39-40.98 81.46-127.92 99.7-185.35l27.63 7.09c70.56-11.22 101.78-15.42 131.77-62.99 40.25-63.83 14-106.01 7.97-131.44-9.84-3.32-4.98-1.68 1.71 6.16-14.65-33.49-22.79-52.04-28.24-58.42-13.09-15.3-8.48 15.34-75.89-63.71l-93.47-42.24c-96.62-117.76-326.42-428.74-338.26-434.4-9.88 77.7 21.94 183.69 35 260.8-73.33-18.99-133.37-77.52-176.53-120.48-38.33-38.16-115.93-160.27-123.61-164.64-16.83 95.87 78.98 238.09 90.93 282.24-92.18-14.15-187.12-137.82-242.95-204.91-20.63-24.79-46.24-71.93-62.8-76.09-21.06 83.29 30.45 209.46 51.3 282.56-51.86-17.32-139.43-115.16-173.24-154.12-27.69-31.89-50.83-61.59-72.23-94.75-9.5-14.73-54.89-90.81-63.18-97.54-9.41 10.55-31.01 102.38-38.18 122.68-14.08 39.88-28.49 78.59-46.15 115.51-25.21 52.69-78.79 171.24-111.93 213.11-4.43 6.41-12.14 19.23-20.75 34.03z" fill="#e5cab4"/><path d="m840.75 1766.89c20.48-11.74 22.1-17.64 46.45-27.66 23.42-9.64 39.43-12.07 67.11-9.86-4.27 78.56 26.95 232.08-41.53 324.79-21.13 28.6-18.75 13.44-18.92 58.83-.21 56.32 1.66 97.07-11.64 142.92 18.18 2.52 5.7 72.06 4.8 107.29-1.11 43.3-3.56 82.65-4.55 122.73-1.07 43.52-1.88 81.12-3.51 122.7-1.88 47.82-8.64 74.93-12.83 119.35 9.04-10.75 9.07-10.56 11.26-32.42l195.42 18.22c151.05 12.75 474.22 14.67 600.67-23.03l14.69 20.93c-.8-36.23-6.84-84.46-11.56-120.81-4.44-34.16-1.19-87.76-1.2-124.43-.01-39.91-4.87-226.51 5.42-249.1-23.63-68.33 20.29-79.16-26.28-183.2-39.96-89.27-47.95-176.18-34.53-271.42l9.31-34.09 39.23.88c-23.3-14.57-48.76-3.36-107.92-3.47-35.29-.07-71.19-1.37-106.78-1.83-1.54-28.35-3.77-73.5 4.1-96.14-13.89 4.17-7.58-2.45-10.17 18.54l1.5 83.56 88.4 1.08c-.09 63.64-42.28 129.79-78.3 158.54-32.15 25.66-31.5 25.79-72.61 44.89-56.48 26.24-151.75 15.14-209.05 5.65-57.54-9.53-151.32-96.23-145.22-207.06l84.44.48c6.59-24.85 3.38-74.66 1.4-103l-14.84-3.01c16.23 18.63 14.15 71.67 8.2 97.83-52.79.72-101.08 9.94-150.56-.14-42.59-8.68-105.49 10.02-120.4 41.47z" fill="#fff"/><path d="m866.12 2727.99c2.81 43.85-21.59 172.6-10.7 327.93 4.31 61.51 5.07 119.84 28.13 167.01 4.57 9.34 4.49 10.1 6.34 18.93 2.72 12.88 4.32 25.92 6.17 38.16 3.55 23.6 4.21 53.24 11.22 73.42-4.18-49.68-18.48-91.9-12.74-139.99l327.66.12c21.24 1.74 8.35-2.04 18.78 4.87l19.18-2.54 3.68-304.2 35.83 266.38c4.2 30.33 4.42 67.18 9.1 97.13l.44-61.5 342.88.16 1.6 35.8 4.41-27.63c32.11-20.48 20.81-17.79 31.82-111.93 10.07-86.1 15.84-181.29 10.41-268.05-1.62-25.87-15.44-118.86-12.17-130.37l-14.69-20.93c-126.45 37.7-449.62 35.78-600.67 23.03l-195.42-18.22c-2.19 21.86-2.22 21.67-11.26 32.42z" fill="#6180ff"/><path d="m1308.76 3275.21 47.61 1022.23c2.98.66 4.86.06 5.57 1.66.72 1.61 2.84 1.31 3.87 1.58 28.39 7.41 372.61 2.01 387.02 1.06 5.28-44.01-52.74-70-83.86-84.19l-92.95-34.44c-15.35-5.5-19.85-4.43-25.93-10.21-25.94-10.2-34.58-32.85-34.58-32.85 21.93-148.44 49.93-295.97 71.32-439.25l66.84-451.13-1.6-35.8-342.88-.16-.44 61.5zm-401.49 78.23c3.62 38.48 46.39 319.82 59.07 370.72l.04.17c.62 2.48 1.17 4.4 1.63 5.71h-.21l9.25 37.16c-4.61 52.31 64.18 346.25 65.23 391.97-57.14 39.78-246.51 61.02-252.35 142.31l401.24 1.87 49.79-1084.91c-10.43-6.92 2.46-3.14-18.78-4.87l-327.66-.12c-5.74 48.08 8.56 90.31 12.74 139.99zm773.55-1136.1 74.12 162.01c68.93 148.74 40.43 117.41 158.75 254.25l123.81 121.66c25.29 24.18 17.39 13.28 30.62 52.42 13.65 40.37 60.31 114.06 93.89 151.29 16.49 18.29 21.34 37.22 51.88 33.95 3.37-41.62-11.02-37.56-20.1-69.71 42.75 44.44 53.57 89.48 93.01 83.35 14.84-30.33-26.91-64.77-34.91-89.84 26.04 13.38 59.61 55.17 96.03 52.42 11.03-41.89-58.94-94.9-77.39-116.9 14.12 10.66 56.02 36.31 84.58 30.96-5.98-38.73-74.45-94.25-110.65-112.82l45.38-4.78.26-.03 4.06-.42c58.5-6.93-8.38-38.09-8.38-38.09-24.57-2.58-37.66-15.95-69.6-24.29-60.95-15.93-49.6-3.89-117.59-96.8l-140.32-183.85c-28.9-35.7-60.63-204.04-74.27-255.36-32.41-121.96-57.08-214.9-104.3-331.11-21.24-52.26-49.13-93.69-111.14-106.15l-39.23-.88-9.31 34.09c-13.41 95.24-5.43 182.15 34.53 271.42 46.57 104.04 2.65 114.87 26.28 183.2zm-840.07-450.45c-12.6 27.93-31.36 30.8-64.35 132.27-14.95 46.01-34.44 97-47.85 146.4l-74.33 294.37c-.42 1.15-.9 2.44-1.38 3.53-11.49 26.2-65.45 21.48-126.06 30.36-42.87 6.27-80.73 11.69-124.07 16.06-59.52 6-57.6 20.38-108.92-10.96-21.41-13.08-69.55-41.11-105.2-33.26-9.2 34.44 11.9 30.81 28.3 52.77-54.87-3.13-115.35-25.06-160.94.68 5.42 14.63 1.63 9.62 13.15 18.61 10.75 8.39 52.36 15.75 61.94 19.29-35.89 18.16-107.83-13.7-131.04 29.44 20.7 33.84 75.65 16.44 109.32 33.98-28.97 2.83-92.51 7.9-93.03 43.63 38.68 17.74 84.07-.05 105.38 2.65l10.06 3.14c-22.71 8.68-47.35 6.72-52.48 34.35 53.78 43.68 264.1-50.39 283.84-51.51 55.02-3.12 138.36 1.19 216.34-3.23 46.55-2.64 145.51-15.1 186.43-43.38 42.19-29.15 86.91-179.01 116.34-230.16 13.31-45.85 11.43-86.6 11.64-142.92.17-45.39-2.21-30.22 18.92-58.83 68.48-92.71 37.26-246.23 41.53-324.79-27.67-2.22-43.69.21-67.11 9.86-24.34 10.03-25.96 15.92-46.45 27.66z" fill="#e5cab4"/><path d="m1462.09 1372.29c10.06-5.51 4.27-6.08 9.12-10.19 10.9-9.23 28.98-4.23 23.09-38.79-9.7-56.94-119.13 2.9-174.49 13.41-143.13 27.19-150.96-23.3-186.62-30.46-27.21-5.47-47.08 8.72-50.5 31.64-14.15 94.91 83.64 145.61 168.63 148.82 150.1 5.66 199.32-77.61 222.62-93.38-9.88-27.29-6.99-4.49-11.85-21.05z" fill="#5b5a5a"/><path d="m1602.4 871.76s111.45 63.79 35.2 160.58c0 0-73.32 87.99-184.04 24.19 0 0-72.49-52.78-55.24-112.21 24.37-83.95 133.7-108.48 204.08-72.57zm-525.66 0s111.45 63.79 35.2 160.58c0 0-73.32 87.99-184.04 24.19 0 0-72.49-52.78-55.24-112.21 24.37-83.95 133.7-108.48 204.08-72.57z" fill="#fff"/><path d="m984.02 878.03c-43.66 10.94-78.93 55.82-63.05 114.35 13.56 49.97 66.13 74.22 113.48 59.69 25-7.67 38.45-15.73 51.23-36.32 12.25-19.74 17.52-51.3 9.53-77.24-4.9-15.88-14.31-29.56-25.56-39.22-6.26-5.37-7.08-5.97-13.12-10.09-23.43-15.99-44.74-18.13-72.51-11.17z"/><path d="m1052.74 931.14c-11.45 2.87-20.7 14.64-16.54 29.99 3.56 13.11 17.34 19.47 29.77 15.66 6.56-2.01 10.08-4.12 13.44-9.53 3.21-5.18 4.6-13.46 2.5-20.26-1.28-4.17-3.75-7.76-6.7-10.29-1.64-1.41-1.86-1.57-3.44-2.65-6.14-4.19-11.73-4.75-19.02-2.93z" fill="#fff"/><path d="m1504.9 878.03c-43.66 10.94-78.93 55.82-63.05 114.35 13.56 49.97 66.13 74.22 113.48 59.69 25-7.67 38.45-15.73 51.23-36.32 12.25-19.74 17.52-51.3 9.53-77.24-4.9-15.88-14.31-29.56-25.56-39.22-6.26-5.37-7.08-5.97-13.13-10.09-23.42-15.99-44.74-18.13-72.51-11.17z"/><path d="m1573.62 931.14c-11.45 2.87-20.7 14.64-16.54 29.99 3.56 13.11 17.34 19.47 29.77 15.66 6.56-2.01 10.08-4.12 13.44-9.53 3.21-5.18 4.6-13.46 2.5-20.26-1.28-4.17-3.75-7.76-6.71-10.29-1.64-1.41-1.86-1.57-3.44-2.65-6.14-4.19-11.73-4.75-19.02-2.93z" fill="#fff"/><path d="m1415.15 800.77c-8.42 7.45-21.75 7.14-29.76-.69s-7.68-20.23.74-27.68c.38-.34 133.03-120.54 291.23 29.67 8.15 7.7 8.03 20.1-.25 27.68s-21.61 7.47-29.76-.23c-128.94-122.42-231.92-29.02-232.21-28.75zm-304.8 0c8.42 7.45 21.75 7.14 29.76-.69s7.68-20.23-.74-27.68c-.38-.34-133.03-120.54-291.23 29.67-8.15 7.7-8.04 20.1.25 27.68 8.28 7.58 21.61 7.47 29.76-.23 128.94-122.42 231.91-29.02 232.21-28.75z" fill-rule="nonzero"/><path d="m1251.31 1486.72c-84.99-3.21-182.78-53.9-168.63-148.82 3.42-22.93 23.28-37.11 50.5-31.64 35.65 7.17 43.48 57.66 186.62 30.46 55.36-10.52 164.79-70.35 174.49-13.41 8.24 31.8-3.65 48.97-17.91 66.96-54.12 68.09-139.8 99.67-225.07 96.45z"/><path d="m1146.55 1311.27c-8.98 2.15-24.94 11.36.56 31.39 25.51 20.02 110.01 71.68 254.59 3.88 0 0 33.34-20.08 1.14-35.62-38.14 7.36-51.61 19.85-83.04 25.82-123.75 23.51-146.36-11.04-173.26-25.46z" fill="#fff"/><path d="m559.7 935.11c-39.82-254.34-115.37-975.16 451.63-856.13 8.81-3.59 17.57-7.05 26.28-10.37 8.24-3.14 16.43-6.16 24.57-9.06 305.43-108.74 547.46-51.2 709.27 34.42 219.68 116.23 299.35 332.88 271.31 768.59l-93.47-42.24c-82.71-145.47-50.71-168.85-303.25-173.6-279.56-72.4-361.62-566.14-209.21-2.88-226.93 82.36-570.76-57.49-759.37 106.47-4.43 6.41-12.14 19.23-20.75 34.03-7.25 16.01-25.71 48.75-45.14 79.88l-.04.07c-20.01 32.05-41.02 62.35-51.82 70.84z" fill="#423c3c"/></svg>